<svg width="31" height="30" viewBox="0 0 31 30" fill="none" xmlns="http://www.w3.org/2000/svg">
<path fill-rule="evenodd" clip-rule="evenodd" d="M5.625 22.75C5.625 23.3023 6.07272 23.75 6.625 23.75H24.625C25.1773 23.75 25.625 23.3023 25.625 22.75V22.25C25.625 21.6977 25.1773 21.25 24.625 21.25H23.125V17.2078C22.8944 17.2356 22.6597 17.2499 22.4216 17.2499C19.2115 17.2499 16.6091 14.6475 16.6091 11.4374C16.6091 9.16936 17.9081 7.20475 19.8027 6.24692C19.1161 5.79445 18.3486 5.46214 17.5 5.25V4.375C17.5 3.85417 17.3177 3.41146 16.9531 3.04688C16.5885 2.68229 16.1458 2.5 15.625 2.5C15.1042 2.5 14.6615 2.68229 14.2969 3.04688C13.9323 3.41146 13.75 3.85417 13.75 4.375V5.25C12.0833 5.66667 10.7292 6.54688 9.6875 7.89062C8.64583 9.23438 8.125 10.7708 8.125 12.5V21.25H6.625C6.07272 21.25 5.625 21.6977 5.625 22.25V22.75ZM13.8594 26.7656C14.349 27.2552 14.9375 27.5 15.625 27.5C16.3125 27.5 16.901 27.2552 17.3906 26.7656C17.8802 26.276 18.125 25.6875 18.125 25H13.125C13.125 25.6875 13.3698 26.276 13.8594 26.7656Z" fill="#6B6C75"/>
<circle cx="22.7102" cy="11.4211" r="4.8" fill="#89D9D1"/>
</svg>
